<?xml version="1.0" standalone="no"?>
<!DOCTYPE svg PUBLIC "-//W3C//DTD SVG 20010904//EN"
 "http://www.w3.org/TR/2001/REC-SVG-20010904/DTD/svg10.dtd">
<svg version="1.0" xmlns="http://www.w3.org/2000/svg"
 width="1024.000000pt" height="1024.000000pt" viewBox="0 0 1024.000000 1024.000000"
 preserveAspectRatio="xMidYMid meet">
<metadata>
Created by potrace 1.14, written by Peter Selinger 2001-2017
</metadata>
<g transform="translate(0.000000,1024.000000) scale(0.100000,-0.100000)"
fill="#000000" stroke="none">
<path d="M3135 7916 c-215 -45 -370 -129 -525 -285 -135 -136 -224 -284 -272
-456 l-23 -80 -3 -1935 c-2 -1370 0 -1954 8 -2000 37 -216 129 -391 289 -550
138 -138 289 -227 461 -272 l85 -23 1965 0 1965 0 85 23 c172 45 323 134 461
272 159 157 249 329 288 544 7 37 11 229 11 497 l0 437 513 5 c434 3 520 6
567 20 217 64 382 228 439 437 20 71 21 100 21 570 0 470 -1 499 -21 570 -44
162 -167 314 -309 384 -143 70 -130 69 -697 73 l-512 5 -3 471 c-4 451 -5 476
-26 552 -47 171 -136 320 -272 456 -157 159 -329 249 -544 288 -91 17 -3871
13 -3951 -3z m3904 -511 c175 -46 320 -191 366 -366 12 -43 15 -142 15 -471
l0 -418 -262 0 -263 0 -40 63 c-115 180 -302 387 -460 511 -290 227 -608 365
-971 423 -149 24 -459 24 -608 0 -585 -93 -1081 -411 -1413 -907 -107 -159
-218 -413 -268 -611 -45 -176 -59 -299 -59 -509 0 -350 63 -620 219 -930 97
-193 199 -335 364 -503 316 -323 704 -522 1157 -594 149 -24 459 -24 608 0
363 58 681 196 971 423 158 124 345 331 460 511 l40 63 263 0 262 0 0 -417 c0
-330 -3 -429 -15 -472 -46 -175 -191 -320 -366 -366 -81 -22 -3757 -22 -3838
0 -175 46 -320 191 -366 366 -22 81 -22 3757 0 3838 46 173 190 319 362 366
74 20 3765 21 3842 0z m-1691 -770 c522 -78 973 -427 1180 -915 213 -500 146
-1077 -176 -1510 -425 -571 -1179 -776 -1832 -498 -250 106 -468 278 -632 498
-452 609 -383 1478 159 2001 238 229 526 375 836 424 114 18 347 18 465 0z"/>
</g>
</svg>
