<?xml version="1.0" standalone="no"?>
<!DOCTYPE svg PUBLIC "-//W3C//DTD SVG 20010904//EN"
 "http://www.w3.org/TR/2001/REC-SVG-20010904/DTD/svg10.dtd">
<svg version="1.0" xmlns="http://www.w3.org/2000/svg"
 width="128.000000pt" height="128.000000pt" viewBox="0 0 128.000000 128.000000"
 preserveAspectRatio="xMidYMid meet">
<metadata>
Created by potrace 1.14, written by Peter Selinger 2001-2017
</metadata>
<g transform="translate(0.000000,128.000000) scale(0.100000,-0.100000)"
fill="#000000" stroke="none">
<path d="M519 982 c-60 -24 -109 -54 -109 -66 0 -5 8 -2 18 6 24 21 62 32 62
18 0 -17 -139 -152 -150 -145 -11 7 -3 26 32 80 l20 30 -27 -30 c-40 -44 -74
-125 -83 -191 l-7 -59 -140 -5 -140 -6 115 -3 c154 -4 152 -4 160 -21 4 -8 15
-40 24 -70 9 -30 34 -79 57 -109 31 -41 38 -56 27 -62 -7 -5 -8 -9 -3 -9 6 0
15 4 20 9 6 5 17 2 28 -9 14 -13 15 -20 6 -26 -8 -4 -10 -3 -5 4 9 14 -3 15
-23 3 -9 -6 -19 -4 -28 5 -16 16 -37 9 -27 -9 4 -7 4 -9 -1 -5 -4 4 -15 2 -24
-5 -14 -11 -14 -10 -2 6 11 14 11 17 -1 17 -8 0 -23 -6 -34 -14 -12 -9 -23
-11 -30 -5 -18 15 -45 -1 -42 -25 3 -21 1 -21 -43 -9 -19 5 -35 -27 -19 -37 8
-5 6 -10 -6 -14 -16 -6 -15 -8 4 -29 19 -20 22 -26 22 -42 0 -3 9 -1 20 5 24
13 17 35 -12 37 -32 3 -37 16 -15 37 20 19 20 19 15 -2 -4 -12 -2 -22 3 -22 5
0 9 4 9 10 0 5 8 7 18 4 14 -5 14 -3 -2 10 -11 9 -15 16 -10 16 16 0 33 -21
28 -35 -4 -9 3 -11 21 -8 19 4 24 2 20 -9 -4 -9 0 -15 9 -15 15 0 12 19 -8 47
-5 8 4 1 22 -17 26 -25 39 -30 64 -26 19 3 34 0 39 -9 6 -9 9 -9 9 -1 0 6 9
11 20 10 11 -1 20 -5 20 -10 0 -5 8 -3 17 4 14 12 16 12 11 -2 -8 -20 30 -19
43 2 5 8 9 9 9 4 0 -6 10 -15 23 -20 12 -6 21 -18 21 -28 -2 -13 1 -15 11 -7
10 8 15 7 19 -2 3 -7 3 1 1 17 -4 27 -3 28 9 13 7 -10 19 -18 27 -18 12 0 12
2 1 9 -11 7 -11 9 2 14 9 4 16 0 18 -10 2 -10 14 -17 30 -17 14 -1 24 2 22 6
-3 4 -1 8 5 8 5 0 18 3 28 6 13 4 14 3 5 -3 -11 -8 -11 -12 0 -20 22 -17 47
-23 53 -12 4 5 10 7 15 4 5 -3 11 -1 14 4 9 13 31 8 51 -13 17 -16 20 -17 30
-3 10 14 18 14 48 5 20 -6 37 -17 37 -24 0 -7 4 -15 9 -18 5 -4 7 2 4 13 -3
10 0 22 6 25 6 4 11 1 11 -6 0 -10 3 -9 11 2 9 12 10 10 6 -8 -4 -17 -2 -22 8
-18 8 3 18 -2 23 -11 6 -10 12 -12 16 -5 4 6 -3 16 -14 22 -11 6 -20 16 -20
22 0 9 3 9 12 0 13 -13 32 -17 24 -4 -5 9 41 8 51 -1 3 -4 17 -7 30 -7 14 0
21 -4 18 -10 -3 -6 1 -10 10 -10 10 0 15 6 12 13 -3 8 1 14 9 14 7 0 10 -5 7
-10 -8 -13 16 -25 38 -20 17 5 19 16 19 104 0 89 -2 99 -20 109 -16 8 -28 8
-50 -4 -18 -9 -30 -10 -30 -4 0 6 -8 8 -19 5 -12 -3 -18 1 -17 12 1 16 -3 17
-34 8 -8 -2 -12 -2 -7 0 15 9 6 18 -17 18 -13 0 -22 -3 -20 -7 3 -4 -4 -6 -15
-5 -11 0 -18 4 -15 8 7 11 -33 17 -47 7 -11 -8 -10 -9 3 -4 10 3 20 1 22 -3 3
-5 -5 -7 -17 -6 -12 1 -22 3 -22 4 0 8 -72 7 -81 0 -8 -6 -14 -4 -18 7 -4 11
6 30 28 54 47 53 82 116 96 178 l12 53 134 -3 c74 -2 134 0 134 4 0 4 -62 9
-137 10 l-138 3 -6 56 c-13 118 -84 222 -191 280 -56 29 -73 33 -153 36 -70 3
-100 -1 -136 -15z m-282 -694 c-3 -8 -6 -5 -6 6 -1 11 2 17 5 13 3 -3 4 -12 1
-19z m97 -63 c-4 -8 -13 -15 -22 -15 -13 0 -12 3 4 15 24 18 25 18 18 0z m116
-25 c0 -12 -33 -5 -38 8 -2 6 5 8 17 5 12 -3 21 -9 21 -13z m-55 0 c3 -6 -1
-7 -9 -4 -18 7 -21 14 -7 14 6 0 13 -4 16 -10z m-195 -25 c0 -2 -6 -5 -13 -8
-8 -3 -14 1 -14 8 0 7 6 11 14 8 7 -3 13 -6 13 -8z m370 0 c7 -9 11 -17 8 -20
-2 -2 -12 4 -21 15 -9 11 -13 20 -8 20 5 0 14 -7 21 -15z m220 -41 c0 -8 -5
-12 -10 -9 -6 4 -8 11 -5 16 9 14 15 11 15 -7z"/>
<path d="M90 360 c-9 -6 -10 -10 -3 -10 6 0 15 5 18 10 8 12 4 12 -15 0z"/>
<path d="M940 359 c0 -5 5 -7 10 -4 6 3 10 8 10 11 0 2 -4 4 -10 4 -5 0 -10
-5 -10 -11z"/>
<path d="M161 327 c-1 -11 -6 -15 -13 -11 -7 5 -8 3 -3 -5 10 -16 29 2 22 21
-4 8 -6 7 -6 -5z"/>
<path d="M254 328 c10 -6 22 -6 26 -2 5 5 -3 10 -18 11 -22 1 -24 0 -8 -9z"/>
<path d="M70 309 c0 -6 4 -8 9 -5 14 9 20 -32 7 -44 -7 -5 -15 -7 -18 -5 -3 3
-8 -3 -11 -14 -3 -12 2 -26 10 -33 14 -11 15 -10 9 9 -4 13 -2 25 6 30 7 4 22
18 33 31 14 17 16 23 5 20 -8 -2 -14 2 -13 7 1 6 -7 12 -18 12 -10 1 -19 -3
-19 -8z"/>
<path d="M180 286 c0 -2 7 -7 16 -10 8 -3 12 -2 9 4 -6 10 -25 14 -25 6z"/>
<path d="M115 260 c-3 -5 -2 -10 4 -10 5 0 13 5 16 10 3 6 2 10 -4 10 -5 0
-13 -4 -16 -10z"/>
<path d="M96 208 c3 -5 10 -6 15 -3 13 9 11 12 -6 12 -8 0 -12 -4 -9 -9z"/>
<path d="M416 163 c-9 -10 -7 -25 3 -19 5 4 12 0 14 -6 4 -8 6 -7 6 4 1 19
-13 31 -23 21z"/>
<path d="M281 157 c2 -1 15 -11 29 -22 14 -11 22 -16 18 -11 -4 5 -2 16 5 25
10 14 10 14 -5 3 -11 -9 -18 -10 -23 -2 -3 5 -11 10 -17 10 -6 0 -9 -1 -7 -3z"/>
<path d="M349 148 c-7 -23 -4 -35 7 -35 9 0 11 4 4 12 -5 7 -7 15 -3 18 3 4 3
7 0 7 -4 0 -7 -1 -8 -2z"/>
<path d="M36 117 c3 -10 9 -15 12 -12 3 3 0 11 -7 18 -10 9 -11 8 -5 -6z"/>
<path d="M450 116 c0 -19 17 -29 25 -16 3 5 1 10 -5 10 -6 0 -8 5 -5 10 3 6 1
10 -4 10 -6 0 -11 -6 -11 -14z"/>
<path d="M130 106 c0 -2 8 -10 18 -17 15 -13 16 -12 3 4 -13 16 -21 21 -21 13z"/>
<path d="M441 83 c7 -12 15 -20 18 -17 3 2 -3 12 -13 22 -17 16 -18 16 -5 -5z"/>
<path d="M745 90 c-3 -5 -1 -10 4 -10 6 0 11 5 11 10 0 6 -2 10 -4 10 -3 0 -8
-4 -11 -10z"/>
<path d="M950 90 c0 -5 5 -10 10 -10 6 0 10 5 10 10 0 6 -4 10 -10 10 -5 0
-10 -4 -10 -10z"/>
<path d="M1125 80 c-2 -3 5 -7 16 -7 10 -1 19 2 19 6 0 9 -29 10 -35 1z"/>
<path d="M210 69 c0 -5 5 -7 10 -4 6 3 10 8 10 11 0 2 -4 4 -10 4 -5 0 -10 -5
-10 -11z"/>
<path d="M497 59 c4 -13 8 -18 11 -10 2 7 -1 18 -6 23 -8 8 -9 4 -5 -13z"/>
<path d="M1096 48 c3 -4 11 -5 19 -1 21 7 19 12 -4 10 -11 0 -18 -5 -15 -9z"/>
</g>
</svg>
